<svg xmlns="http://www.w3.org/2000/svg" version="1.0" viewBox="0 0 755 619"><path d="M534.1 68.4c-2.2 2.7-3.2 8.1-3.2 16.9.1 4.9-.2 8.7-.7 8.5-.4-.2-4.7-2.3-9.5-4.7-9.7-4.9-11.4-4.7-10.3 1.2.7 3.5 12 22.3 16.2 26.8 2.9 3.1 3 3.5.4 4.2-1.4.4-2 1.4-2 3.5 0 2.6.9 3.5 8.3 8 4.5 2.7 10 6.9 12.2 9.1 2.1 2.3 4.6 4.1 5.3 4.1 1.2 0 1.4 1 .9 4.9-.7 5.9-3.4 12.8-4.6 11.5-.4-.5-1.8-5.3-3.1-10.6-1.6-6.8-2.9-10.3-4.6-11.9-3.9-3.7-5.3-2-5.1 6 .1 3.8-.2 7.3-.6 7.8-.5.4-1.8-.4-2.9-2-2.3-3.2-3.9-3.4-6.3-.7-2.4 2.6-1.4 9.5 2.6 17.6 2.2 4.7 4.8 7.8 10.7 12.9 5.1 4.5 8.2 8.1 9.3 10.8.8 2.1 3.2 6.1 5.2 8.8l3.6 4.9h-3.3c-5.4 0-20.5 2.9-28.9 5.5-10.5 3.3-21.5 5.1-22.8 3.8-1.2-1.2.7-8.7 4.8-19.2l2.6-6.5-2.1-1.6-2-1.7 1.9-5.9c2.6-7.8 2.2-10.8-1.3-11.2-2.1-.3-2.8-.9-2.8-2.5 0-1.2-1.3-5-3-8.5-2.1-4.4-3.5-6.2-4.8-6.2-2.5 0-6.9 3.5-7.7 6-.4 1.4-1.5 2-3.4 2-3.6 0-4.8 2.7-5.7 13.2-.5 5.7-1 7.5-1.9 7.1-.8-.2-1.9.5-2.5 1.8-2.3 4.3 1.1 18 7.1 28.7l3.1 5.5-5.1-.7c-6.4-.8-19.8-6.5-27-11.5-3.3-2.2-7.6-6.5-10.6-10.6-4.6-6.3-5-7.3-5.3-13.4-.3-6.2-.1-7.1 4.2-15.5 4.9-9.5 5.8-14.7 3.3-19.6-2.2-4.5-4.9-3.7-7.9 2.2l-2.7 5.3v-7.6c-.2-17.4-7.5-26-10.6-12.3-.6 2.7-2 6.4-2.9 8.3-1.7 3.3-1.9 3.4-3.2 1.6-.8-1-2.3-4.4-3.5-7.4-1.1-3.1-2.7-6.6-3.5-7.8-.8-1.2-2.3-4.6-3.4-7.5-1.1-2.9-2.5-6.2-3-7.3-.4-1.1-1.3-3.3-1.7-4.9-2.2-7.2-7.3-5-7.3 3.1 0 4.2 0 4.2-3 3.7-4.7-1-5.5 2.5-2.9 12.8 2.4 9.6 5.6 16 10.6 21.2l3.5 3.6h-3.8c-2.2 0-6.3-1.1-9.2-2.5-6.8-3.1-8-3.1-9.4.1-1.2 2.5-.9 3 5.1 8.6 3.5 3.3 8.5 7.4 11 9 2.9 2 3.8 2.8 2.3 2.5-5.3-1.2-6.6 1.5-3.1 6.4 3.5 4.9 9 7 21.2 8.1 6.1.5 11.8 1.3 12.8 1.8.9.6 3.8 4.1 6.4 7.9 5.9 9 11.5 13.9 22.3 19.4 11.3 5.9 17.6 7.6 29.2 8.4 11.8.7 24.4-.9 37.5-4.7 15.2-4.4 27.6-6.3 36.5-5.5 4.1.4 7.8.9 8.3 1.2.8.5-3.6 4.4-7.2 6.3-1.3.7-5 1.4-8.2 1.6-8.4.5-12.3 2.4-15.8 8-2.3 3.8-2.7 5.2-1.9 6.7.9 1.7 1.8 1.9 8 1.5 6.2-.5 7.3-.9 10.4-3.9 1.8-1.8 3.6-4.1 4-5.1.3-1 2.1-2.5 4.1-3.3 1.9-.8 5.2-2.8 7.3-4.5 4.1-3.2 9.2-4 13.3-1.9 4.1 2 17.7 11.4 17.7 12.1 0 .5-.7.8-1.5.8-5.8 0-16.9 10.5-23.2 21.8-4.1 7.5-11.2 18.3-14.6 22.4l-2.2 2.8-7.4-2.5c-8.4-2.9-23.1-4.8-26.4-3.6-3.2 1.3-5 3.7-4.3 5.9.6 1.8 0 2-5.9 2.4-8.7.5-9.8 2.1-4.7 6.6 4.3 4 10.7 7.1 14.2 7.2 1.4 0 3.1.4 3.8.9 1.7 1-4.7 2.7-14 3.7-5.7.6-7.5.3-12.3-1.7-5.1-2.1-6.1-2.2-12.2-1.2-6.8 1.2-8.3 2.2-8.3 6 0 4.2 8.3 8.4 16.9 8.5 5.4.1 8.1-1 9.1-3.6.7-2 1.7-2.4 8.5-2.9 10.8-.8 23.1-5 33.2-11.4 4.7-2.9 8.7-5.2 8.8-5.1 2.8 4.2 4.5 8.1 4.5 10.1 0 3.9 2 4.4 4.7 1.1 4.8-5.8 6.6-10.6 7.4-19.6.4-5.7 1.5-10.3 2.9-13.3 1.2-2.5 2-5.1 1.7-5.7-.6-1.6 3.5-8.9 8.1-14.6 7.6-9.3 17.9-12 24.4-6.4 10.8 9.3 18.1 12.2 30.9 12.2 12.9 0 22.4-1.7 30.1-5.3 6.2-3 6.7-3.4 6.8-6.4v-3.2l-5.4 2.4c-11.9 5.3-38.4 7.8-41.2 4-2.6-3.5-4.4-14.6-3.2-19.8.9-4.4 1.4-5 5.2-6.7 5.1-2.2 10-7.8 12.1-13.9 1.3-4 1.3-4.7 0-6.8-3.5-5.3-12.9-1.5-16.4 6.6-1.1 2.7-3.3 6.3-4.7 8-2.1 2.6-2.4 3.4-1.4 4.6 1 1.2 1 2.8 0 7.7-1 5.3-1 7.3.2 12.1.8 3.2 1.2 5.9.9 6.1-.7.5-3.6-1.6-18.8-13.2-11.6-8.9-26.9-17.3-34.8-19.3-5.5-1.4-5.2-1.2-11.7-6.9-5.1-4.5-8.4-10.6-9.9-18.3-1-5.7.1-10.9 4.5-20.9l2.5-5.5 5.1.8c2.8.4 7.5 1.9 10.5 3.3l5.5 2.5-4.9 4.9c-10.9 10.9-10.2 26.3 1.4 32.9 12.5 7.1 29.1 4.1 39-6.9 5-5.5 7-11.7 6.2-18.8-2-17-19.4-28.5-31.1-20.5-2 1.4-3.9 2.5-4.1 2.5-.3 0-.5-1.8-.5-4 0-3.3-.4-4-1.9-4-2.1 0-3.1 1.9-3.1 5.6 0 1.3-.1 2.4-.2 2.4-.2 0-3-1.1-6.3-2.5-3.4-1.4-8-2.5-10.7-2.5H557v-4.3c0-2.3-.5-6.2-1.1-8.6-.7-3.1-.6-4.7.2-5.7.7-.9.9-2.7.5-4.7-.5-2.2.3-7.1 2.5-15.7 3.8-14.6 3.6-19.4-.9-21.1-3.4-1.3-5.2-.3-7.5 4.4-.9 2.1-2.1 3.7-2.6 3.7-.4 0-1.1-2.6-1.4-5.8-.2-3.1-1.6-8.6-3-12.2-1.4-3.6-2.9-8.3-3.4-10.5-.9-4.4-3.9-5.9-6.2-3.1zm7.6 28.2c.4 4.9 1.1 7.8 2 8.1.7.3 1.3 1.5 1.3 2.8 0 1.3.7 2.6 1.5 2.9 1.1.4 2.7-1.2 5.4-5.5 2.1-3.4 4.1-5.7 4.5-5.1.3.5-.9 6.3-2.7 12.8-3.1 10.9-3.5 11.7-4.6 9.6-2-3.7-8.2-10.2-9.7-10.2-2.9 0-2.5 3 1 7.3 3.4 4.2 8.6 14 8.6 16.4 0 .7-2.7-.7-6.1-3.2-3.4-2.5-6.6-4.5-7.2-4.5-.7 0-.7-.4.1-1.2 2.2-2.2 1.2-5.6-2.8-10.3-3.9-4.5-15-20.7-15-21.9 0-1 5 1.3 10.2 4.8 4.1 2.8 5.5 3.3 7.1 2.5 1.7-1 1.8-1.9 1.3-11.7l-.7-10.7 2.6 4.7c1.8 3.3 2.7 7.1 3.2 12.4zM404.4 131c6.5 14.3 7.8 16.9 9.8 18.7 2.9 2.6 5.1 1.1 8.3-5.4 1.7-3.4 3.3-6.2 3.8-6.2 1.1-.1.9 10.2-.3 13.5-1.2 3.5 0 10.6 1.9 11.2.7.2 3.5-1.9 6.2-4.8s4.9-5 4.9-4.7c0 .3-2 4.7-4.5 9.8-2.5 5.1-4.5 10.3-4.5 11.5 0 5.1-.6 5.3-9.8 4.8-9.6-.6-18.2-2.2-18.2-3.4 0-.4 1.4-1 3-1.4 2-.4 3.4-1.4 4-3.1 1.6-4.3 1.2-5.2-2.7-6-4-.7-11.2-4.4-13.1-6.8-1-1.2-.2-1.4 5.6-1.3 3.7 0 7.3-.3 8-.8.6-.4 1.2-2.4 1.2-4.6 0-3.3-.4-3.9-3-4.8-3.9-1.4-10.5-11.5-11.9-18.3-1.4-6.6-1.4-6.8.8-6.2 1.3.3 2.3-.2 3.1-1.7.7-1.2 1.5-1.8 1.9-1.4.4.5 2.9 5.6 5.5 11.4zM542 166.5c1.3 5.8 2 10.8 1.7 11.1-.9.9-7.4-4.7-10.2-8.6-1.3-1.9-2.7-4.7-3-6.3-.6-2.4-.4-2.7 1.7-2.7 1.4 0 3.3-.9 4.4-1.9 1-1.1 2.2-2 2.5-2 .3-.1 1.6 4.6 2.9 10.4zm60.3-8.1c1.8.7 4.9 3.2 6.9 5.6 10.6 12.3 4.8 28.6-11.8 33.6-9.3 2.8-18 1.2-23.1-4.3-2.7-2.9-3.3-4.2-3.3-8.1 0-6.9 3.3-12.8 9.4-16.7 2.8-1.8 7-5.1 9.2-7.4 4.5-4.5 7.2-5.1 12.7-2.7zm-107.8 2.7c.9 1.7 2.1 5.8 2.6 9.2.6 3.7 1.7 6.7 2.6 7.5 1.6 1.1 1.5 1.7-1 6.7-3.2 6.6-3.2 6.6-.8 9.4 2 2.3 2 2.3.1 7.2-1.1 2.7-2.3 7.4-2.6 10.4-.6 5.2-.8 5.5-3.5 5.5-1.6 0-2.9-.5-2.9-1.1 0-.6-1.6-3.6-3.5-6.7-3-5-7.5-15.9-7.5-18.4 0-.5.9-.7 1.9-.3 3 .9 3.6-1.2 3.2-11.2-.3-8.4-.1-9.2 1.8-10.2 1.2-.7 3.2-3.4 4.6-6.1 1.4-2.8 2.7-5 3-5 .2 0 1.2 1.4 2 3.1zM642 199c0 3.8-7.8 13.5-9.5 11.8-1-.9 3.6-9.7 5.8-11.3 2.5-1.8 3.7-1.9 3.7-.5zm-90.9 28.9c-1.5 2.8-8.1 4.5-8.1 2.2 0-1.6 4.2-4.1 6.8-4.1 1.9 0 2.1.3 1.3 1.9zm17.5 54.5c-.9 5.8-2 7.3-4 5.7-2.2-1.9-2-3.9.9-7.7 1.4-1.8 2.6-3.9 2.6-4.6.1-.7.3-.5.6.6.3 1 .2 3.7-.1 6zm-22-2.6c6.4 1.9 7.4 3.1 4.4 5-1.5.9-2.4.9-3.9 0s-2.4-.7-5.2 1.3c-4.3 3.1-15.6 3.9-20.9 1.6l-3.5-1.5 7.1-.1c4-.1 7.5-.6 8.2-1.3 2.2-2.2 1.3-4.7-2-6.3-3.2-1.5-3.2-1.5 3.4-1 3.7.3 9.3 1.3 12.4 2.3zM497.2 301c2 .6 3.9 1.8 4.2 2.7.6 1.4-.1 1.5-4.8 1-3-.3-6.5-1.1-7.8-1.8l-2.3-1.3 3-.7c1.7-.4 3.2-.7 3.5-.8.3 0 2.1.4 4.2.9z"/><path d="M339.6 71c-1.5.5-3.6 1.6-4.6 2.5-1.1 1-2.6 1.4-4.2 1-2.8-.7-8.2 3.1-9.3 6.4-.3 1.1-1.6 2.2-2.8 2.5-5 1.2-15.3 13.9-19.7 24-2.4 5.7-6.7 21.8-7.5 28.1-.9 7.3 1.1 24 4 33.2 3.6 11.5 7.6 19.9 14.5 30.4 3.4 5.1 8.6 13.7 11.7 19.2l5.6 9.9-1.7 4.9c-5.3 14.7-.6 38 11.4 55.9 4.8 7.2 7.7 13.6 6.7 14.6-.7.7-24-11-30.4-15.3-8.3-5.5-14.5-11.6-22.5-21.9-17.2-22.5-20.2-27.6-25.6-43.9-7.1-21.2-7.4-22.5-5.4-23.1 10.9-3.4 19.7-11.5 22.6-20.8 2.1-6.5 1.5-11.6-1.4-11.6-1 0-3.6 2.4-5.9 5.5-2.3 3-4.6 5.5-5 5.5-.5 0-1.2-1.2-1.6-2.7-1.5-6.1-5.9-7.3-7.7-2.2-1.6 4.7-5.3 11.2-6.5 11.6-.6.2-2.7-2.5-4.6-5.9-4.1-7.3-11.9-15.1-19.2-19.2l-5-2.8v-12.2c0-9.3-.5-13.5-1.9-18-2.7-8.1-7.3-14-11.3-14.4-4.7-.5-6.3 1.8-6.3 9.1 0 6.4-.8 10.7-1.9 10.7-.3 0-2-2.2-3.8-4.8-1.8-2.6-6.8-8.3-11.3-12.7-6.8-6.7-8.3-7.8-9.8-6.9-2.6 1.7-2.6 4.9.2 9.7 1.4 2.4 2.6 4.6 2.6 4.9 0 .2-3.3-.4-7.2-1.4-9.7-2.5-13.2-2.1-13.6 1.3-.3 2.2 1.1 3.9 7.7 10 4.5 4.1 8.1 7.7 8.1 8.1 0 .4-2.1 1.3-4.7 2-3 .9-4.9 2-5.1 3.1-.4 1.8.8 2.4 9.3 5 4.5 1.4 4.7 1.5 1.8 1.6-1.7.1-3.5.6-3.8 1.1-1.1 1.8 1.6 7.9 4.3 9.8 4 2.8 13.5 6.1 19.6 6.8 6.2.8 17.5-2.2 21.9-5.6l2.7-2.1 5.2 2.8c12 6.4 19.1 17.5 25.7 40.3 2.2 7.4 4.2 14.2 4.5 15 .5 1.3-.5 1.5-7.2 1.2-10.3-.5-19.2 2.5-37.7 12.5-12 6.6-14.9 7.8-19.9 8.1-5.2.4-5.8.3-5.3-1.2 5-12.9 6.1-25.7 2.3-26.4-1.1-.3-2.7.7-4.1 2.4l-2.2 2.7-1.9-3.8c-3.6-7.3-7.5-7.3-10.1.1-1.5 4-1.1 12.3.8 17.2.5 1.4.8 2.7.5 2.9-.9.9-6.6-4.2-11.5-10.3-6.6-8.2-14.8-12.5-25.4-13.2-6.1-.4-7.6-.1-9.6 1.5-2.8 2.3-2.2 3.9 1.7 4.8 1.5.3 4.1 1.7 5.7 3.1l3 2.5-6-.7c-3.3-.5-11.2-.8-17.5-.9-11.3 0-11.6.1-18.5 3.6-7.8 4.1-9.6 6-7.9 8.6.8 1.3 3.1 2 8.5 2.5 8.1.7 13.4 2.3 10.9 3.1-.8.3-4.5 1.2-8.1 2.2-7.5 1.9-9.6 3.6-15.3 13.2-3.1 5-3.7 6.7-3.1 9.2.9 4.1 3.6 4.7 10.9 2.1 3.3-1.1 6.1-2 6.3-2 .1 0 .3 1.1.3 2.4 0 7 7.8 4.8 16.5-4.6 2.9-3.1 5.9-7.3 6.6-9.3.7-1.9 1.6-3.5 2.1-3.5 1.4 0 2.9 8.2 2.7 14.8-.3 6.6 1.1 11.2 3.2 11.2 1.6 0 6.8-5.9 9.2-10.4 1.7-3.3 2.1-6 2.2-13.8.1-7.4.6-10.3 1.9-12.3 2.2-3.3 3.4-2.4 4.4 3.6.6 3.3 1.2 4.4 2.5 4.3 5.6-.3 6.5-.6 7.5-2.8.6-1.3 1.4-4.1 1.7-6.3 1.1-6.7 1.2-6.7 6.3-2.3 9.8 8.7 20.2 12.6 30.5 11.4l5.8-.6-3 5.7c-3.6 6.8-4 12.3-1.5 23 1.5 6.3 1.5 7.4.1 11.5-.8 2.4-1.3 5-1 5.7.6 1.6 5.1 1.6 8 0 2.4-1.3 7.8-7.8 9.9-11.9 1.6-3.1 1.8-11.8.4-16.8-.8-2.6-.6-4.8.6-9 1-3.5 1.4-7.4 1.1-10.7l-.5-5.2 4.6-2.9c14.2-8.6 29.5-12.2 37.6-8.8 2.9 1.2 4.2 2.9 8 10.8 2.4 5.1 7 12.8 10.1 17.2 3.1 4.3 5.5 7.9 5.3 8.1-.2.1-2.3 1.2-4.7 2.5-3.7 1.8-4.7 2-7.2 1-3.7-1.6-8.5-.6-13.7 2.7-6.6 4.3-5.1 9.3 2.7 9.3 2.7 0 3.1.4 3.6 3.7.8 4.9 3.3 10.8 5.4 12.7.9.8 3.4 1.6 5.6 1.8 3.5.3 4 0 4.3-2 .5-3.4-1.7-9-5-12.7-2.3-2.7-2.7-3.8-1.9-5.3 1.5-2.8 12.5-8.4 14.8-7.5 1.1.5 4.4 3.7 7.4 7.3 9.4 11.1 18 16.8 47.3 31.6 26.3 13.2 49.1 25.6 53.1 28.9l2 1.6-2-.5c-14.6-3.7-26.3-4.8-36.2-3.3-4.2.6-5.3.5-5.3-.6 0-2.6-7-9.5-12.2-12.1-8.1-4.1-17.7-3.3-26.4 2-2.5 1.6-6.9 4.3-9.7 5.9-2.9 1.7-5.3 3.8-5.5 4.7-.2.9 1.4 3.4 3.6 5.7 3.3 3.5 4.5 4.1 7.9 4.1 2.4 0 5.9-1.1 8.9-2.6 13.2-7.1 11.5-6.6 16.7-4.8 2.6.9 4.7 2 4.7 2.4 0 .5-2.8 2.4-6.2 4.1-8.4 4.4-21.1 17.2-26.1 26.3-8.3 15.3-14.7 38.1-14.7 52.6 0 8 2.1 18.3 5.5 26.9l2.3 5.9-2.4 1c-3.3 1.5-6 6-4.6 7.4.8.8 2.2.8 5.2-.2 2.6-.9 4.7-1 6-.4 2 .9 1.8 1.2-2.3 4-10.8 7.6-13.2 15.9-7.8 26.8 6.1 12.5 17.1 16.1 33.6 10.9 8-2.5 13.6-7.2 17.5-14.5 1.2-2.2 2.8-3.8 4.2-4 2.7-.4 3.6-3.1 3.7-11.7.1-6.9-.2-6.8 6.8-4 2.6 1 3.4 1 4.7 0 2.5-2.1 1.9-6-1.9-14-2.8-5.8-3.2-7.2-1.8-6.6 9.5 3.8 10.2 3.9 15 2.7 7.7-2.1 7.9-2.7 4-11.3-6-13.2-18.6-24.1-30.5-26.5-2.5-.5-3.9-2-7.5-8.3-2.4-4.2-6.1-9.6-8.2-12-8.1-9.8-12.6-23-10.5-31.3 2.9-11.4 21.2-22.1 40-23.5 16.3-1.2 47.2 8.3 57.2 17.6 3.7 3.3 15.8 18.9 15.8 20.2 0 .2-4.4.4-9.8.4-8.9 0-10.1.2-15 3-3 1.6-6 4.1-6.7 5.5-1 1.9-3.4 3.4-8.4 5.4-5.4 2.1-7.1 3.2-7.1 4.7 0 1.1.6 2.2 1.4 2.5 1.1.4.7 1.6-1.9 5-4 5.2-5.1 10.8-3.5 17.7 3.2 14.5 10.6 20 27 20.1 8.8.1 13.4-1.9 21.1-9.1 10.8-10.1 12-22.9 3.3-35.4-5.4-7.9-12.4-10.7-20.6-8.2-5.8 1.7-7.3 1-3.8-1.7 5.3-4 18.7-5.1 26.3-2.1 1.5.6 4.8 3.9 7.5 7.7 2.6 3.7 8.6 12 13.5 18.4 4.8 6.4 8.7 12 8.7 12.3 0 .4-.9.7-1.9.7-2.3 0-3.3 2.3-2.5 5.5.6 2.3.4 2.3-2.8 1.5-1.8-.5-6.4-1-10.3-1.2l-7-.3v3c0 2.5.9 3.6 5.5 6.7 3 2 8.2 4.7 11.4 5.9l5.9 2.3-2.8 2.1c-1.6 1.4-2.6 3-2.3 4.1.5 2.8 6.3 2.9 15.6.4 4.2-1.2 9.8-2.2 12.5-2.1 4.3 0 5.4.5 12 5.9 13.5 11.1 32.4 22.5 54.5 32.9l11.5 5.4-3.5 2.4c-2.2 1.5-4.8 5-7.2 9.4-2 3.9-4.1 7.1-4.6 7.1s-1.5 1-2.1 2.2c-2.3 4.3-2.7 8.8-1.3 14.1 1.6 6.1 1.8 11.3.4 12.2-2 1.2-1.1 5.5 1.4 6.6 1.8.9 3.1.7 6.4-1 7.4-3.8 10.7-10.4 10-20.2-.3-4.7-1-6.6-3.6-9.8-1.8-2.2-3.2-4.5-3.2-5.1 0-2.4 4.1-8.9 6.8-10.8 6.3-4.6 8.6-4.1 39.3 7.7 5.9 2.2 14.9 5.2 20 6.6 5.2 1.4 13.7 3.9 18.9 5.5 9 2.7 25.3 7.2 31.3 8.6 2.5.6 2.7.4 2.7-2.3 0-3-.2-3.1-10.2-5.8-11.3-2.9-19.4-6.1-20.6-7.9-.9-1.5-17.7-16.6-35.4-31.9-7.5-6.5-16-14.4-19-17.6-12.3-13.3-27.8-45.7-27.8-58 0-9.3 8.4-27.1 17.4-36.9 5.3-5.8 13.8-12.3 20.1-15.4 5.1-2.6 14.5-4.6 14.5-3.1 0 .4-2.3 2.3-5 4.2-3 2-5 4.1-5 5.2 0 2.7 3.6 2.4 7.4-.4 5.5-4.2 5.7-3.9 2.1 3-8.3 15.9-7.6 25.5 2.4 34.6 5 4.5 7.1 5.1 17.4 4.5 13.7-.8 25.6-6.8 30.4-15.3 3.9-6.9 5.5-15.6 4.3-23.2-2.3-14.2-8.2-22.2-16.8-23.1-6.4-.6-11 1-17.2 5.9-4.7 3.7-8 5-8 3 0-1.5 3.2-4.3 6.6-5.7 4.1-1.7 10.4-7.6 10.4-9.8 0-3.4-3-2.8-7.5 1.3-2.4 2.2-5.2 4.1-6.1 4.1-1 0-3.4 1.8-5.6 4-3.3 3.6-4 3.9-6 2.9-3.3-1.8-14.5-.6-19.8 2.1-15.4 7.7-26.7 19.6-35.4 36.9-2.1 4-3.9 7.1-4.1 6.9-.2-.2-1.8-8.5-3.5-18.6l-3.1-18.2 2.9-3.8c7.8-9.9 10.5-15.1 10.4-19.8 0-2.6-.5-5.1-1.1-5.7-.6-.6-1.1-2.9-1.1-5.2 0-5-1.5-10.6-3.2-11.7-2.6-1.6-4.6-.8-5.7 2.3-1 2.9-1.3 3.1-5.1 2.4-3.7-.6-4.1-.5-5.1 2.2-.6 1.5-.8 4.2-.6 5.9.3 1.7.1 3.7-.4 4.5-.8 1.1-1.3.9-2.6-1.1-3.4-5.1-13.4-14-15.8-14-4.4 0-3.7 2.1 2.4 7.7 3.4 3 7.7 8.1 9.5 11.3 3.6 6.1 9.3 21.6 8.4 22.5-.3.3-2.1-.3-4-1.5-1.9-1.1-7.7-2.9-12.9-4-14.4-3-20.9-5.2-22-7.2-.5-1-1.8-1.8-2.9-1.8-2.7 0-7.8-4.6-10.1-9.2-2.9-5.7-3.6-12.9-1.5-16 1.4-2.2 1.5-2.7.2-3.7-2.3-1.9-5.4.3-6.2 4.5-.9 5 0 11.2 2.4 16.7 1.2 2.6 2.1 5.1 2.2 5.5 0 .4-2.6 1-5.9 1.4-5.9.7-14.6 4.3-17 7.2-2.6 3.1-.9 6 4.8 8 3 1.1 4.9 2.2 4.3 2.4-1.6.5-1.5 4.5 0 6s10 1.5 15.3.1c2.2-.6 6.6-3.1 9.9-5.5 7.4-5.4 11.5-6.2 22.7-3.9 10.6 2.2 14.6 3.8 18.6 7.7 4.3 4.1 5.4 8.2 9.8 33.8 2.1 11.8 4.6 23.7 5.6 26.4 1 2.8 1.7 5.2 1.5 5.4-.3.2-1.4-.2-2.6-.8-1.2-.7-4.2-1.2-6.6-1.3-4.1 0-4.4-.2-4.2-2.6.4-3.9-3.3-3.9-9.6 0-3.1 2-6.2 3.1-8 3-1.6-.1-3.7.6-4.7 1.5-3.2 2.9-3 1 .5-4.4 4.2-6.5 5.9-15.5 5.4-28.7-.3-8.6-.6-10-2.1-10.3-4.5-.9-12.9 13.3-15.6 26.5l-1.8 8.8-2-4.5c-3.8-8.5-9.7-13.4-11.9-9.8-.4.6-.9 8.2-1 16.7-.3 14.8-.2 15.9 2.1 20.7 1.4 2.8 4.3 7 6.5 9.4 6.3 6.8 4.2 6.9-4 .2-7-5.6-15.1-14-24.7-25.7-8.5-10.4-22.3-47.5-22.3-60.1 0-3.4 1.2-8.5 3.5-14.8 4.5-12.3 4.4-16.2 0-27.6-4.4-11.3-5.9-21.2-4.6-30.6 1.3-9.1 3.3-13.5 8.2-18.9l4.1-4.5 1.9 2.3 1.9 2.2 3.9-4.3c2.1-2.3 4.1-4.2 4.5-4.2.3 0 .6 1.3.6 2.9 0 3.9 4.2 8.8 8.6 10 9.4 2.6 17.4-4.8 17.4-16 0-12.8-9.2-20.8-18.4-16-3.7 1.9-4 1.9-5.2.3-1.1-1.6-1.4-1.5-3.9.8-1.4 1.4-3.1 4.3-3.7 6.6-1 3.5-1.9 4.5-5.5 6.3-5.6 2.7-12.8 9.3-15.8 14.5-3 5.2-5.2 13.2-6 21.9l-.7 6.9-2.3-2.2c-1.2-1.1-3.1-3.6-4.1-5.5-1.5-2.9-1.6-3.7-.5-5.8 2.9-5.4-4.6-20-12.2-24.2-4.8-2.6-6.2-1.2-6.1 5.8.2 6.5 4 14.6 8.7 18.1 2.1 1.6 3.8 4.1 4.6 6.5.6 2.2 3.4 6.4 6.1 9.4 2.8 3 5 6 5 6.6 0 .6.9 1.6 2 2.3 1.1.7 2 1.7 2 2.1 0 .5 1.4 4.2 3 8.4 3.9 9.7 3.8 14.2-.2 24-2.9 7-3.2 8.8-3.2 17.3.1 8.9 1.6 15.7 6.2 27.9 1.3 3.5-3.1-1.4-4.9-5.5-1-2.2-2.8-4.9-3.9-5.9s-3-3.5-4.2-5.4c-3.4-5.6-12.6-17.9-16.6-22.2-8.5-9.2-33-25.3-60.2-39.9-17-9-18.2-9.8-17.4-11.1 1.1-1.8-2.6-11.6-6.7-17.9-6.3-9.8-9.7-17.6-12-28.1-2.6-11.8-2.1-17.9 2.2-26.5 1.7-3.5 3.5-6.4 4-6.4.4 0 2.8-1.7 5.3-3.9 2.4-2.1 8.2-5.9 12.9-8.4 14.8-8.2 25.2-20.7 24.5-29.6l-.3-3.6-5.6.2-5.6.2 1.4-6.2c2.1-8.7 1.4-17.3-1.7-21.5-3.4-4.6-4.3-4.1-7.4 4.8-1.7 4.9-5.5 11.5-6.1 10.8-.3-.2-1.6-4.3-3-9.1-2.9-10.1-7.5-20.6-9.7-22.5-2.6-2.1-8.4 1-9.9 5.3-.7 1.9-1.6 3.5-2 3.5-.4 0-2.9-2.4-5.6-5.4-5.3-5.9-8.3-7.5-10.2-5.2-1.9 2.3.3 13.1 3.6 18 1.5 2.2 3.1 4.6 3.6 5.3.5.9-.4 1.1-3.5 1-4.2-.2-4.3-.1-4.6 3.3-.4 4.7 1.5 6.3 15.6 13.5 9.7 5 11.6 6.4 13.8 10.1 3.4 5.8 4 10.3 1.9 14.5-2.7 5.4-12.8 20.9-13.6 20.9-.4 0-1.8-2.2-3.2-4.8-3.9-7.5-6-11-12.6-21.5-16.2-25.6-20.9-48.3-14.7-71.6 2.9-11 7.7-21.7 12.3-27.1l2.8-3.3.5 2.4c.9 3.9 4.3 3.6 5.8-.6.8-1.9 1.8-3.5 2.4-3.5.6 0 .7.7.3 1.7-2.6 6.3-3.4 10.8-2.6 13.9 2.4 8.6 11.4 14.8 21.6 14.8 9.7-.1 15.3-4.2 20-14.9 5.3-11.9 4.2-19.9-3.8-29.1-5.5-6.2-13.7-9.3-20.1-7.4zm10.8 6.5c1.8.9 5 3.9 7.1 6.7 3.4 4.4 3.9 5.8 3.9 10.3 0 6.9-5.1 17.5-9.8 20.4-9 5.6-24.6-1-24.6-10.3 0-3.7 3.3-11.2 6.2-14.3 1.3-1.4 1.8-2.8 1.3-4.2-.6-2.1 1.5-6.5 4.4-8.9 2-1.7 7.6-1.5 11.5.3zM329 82.1c-.7 1.1-1.4 1.8-1.7 1.5-.3-.3 0-1.2.7-2.1 1.8-2.1 2.3-1.9 1 .6zM216.3 124c3 6.1 5.4 20.7 4.2 26.7-.5 2.8-1 3.3-2.3 2.8-.9-.4-2.5-.9-3.4-1.2-2.9-.8-4.5-12.2-4-27.6.2-8.3 1.5-8.5 5.5-.7zm-21.5 4.7c4.2 5.5 12.2 19 12.2 20.8 0 1.9-1.9 1.9-3.4 0-.8-1.1-3.6-1.6-10.1-1.8-9.7-.4-14.7-1.9-10.7-3.1 1.2-.4 2.7-1.6 3.2-2.6.9-1.6 0-2.7-5.9-7.4-8.2-6.6-9-7.6-5.9-7.6 3 0 12.8 4.8 13.5 6.6.7 1.8 3.9 1.8 4.6.1.3-.7-.1-3-.8-5-1.6-4.7-.5-4.7 3.3 0zm146.7 22.4c4 10.2 6.5 20.6 6.4 26.9v5.5l-2.3-2.9c-1.3-1.6-6.3-5-11.1-7.6-7.9-4.3-8.5-4.8-6.1-5.4 3.8-.9 3.3-3.3-2.9-12.1-3-4.4-5.5-8.3-5.5-8.8s1.9.5 4.2 2.2c6.7 4.9 9.9 4.1 12.2-3.2 1-3.1 2.2-1.8 5.1 5.4zm-128.1 6.4c2 .8 3.6 1.9 3.6 2.3 0 .4-2.3 1.6-5.1 2.6-6.4 2.3-18.3 1.8-24.9-1.1l-4.5-2 11-.5c9-.5 13-1.2 16.1-2.7.1-.1 1.8.6 3.8 1.4zm151.1 15.1c-.3 2.4-1.7 6.4-3.1 8.9-2.9 5.5-3 7.1-.6 8.4 1.4.8 2.8.5 5.3-1 9.3-5.3 10.1-5.1 6.9 1.5-2.4 5.1-6.1 9.2-10.5 11.9-1.7.9-5.9 3.5-9.4 5.7-3.6 2.2-6.6 3.8-6.7 3.7-.2-.1 1.3-3.4 3.2-7.3 3-6 3.6-8.5 4.2-16.7.7-8.4 1.1-10 3.3-12.4 1.5-1.5 3.7-4.8 5-7.2 2.1-3.8 2.4-4.1 2.7-2.1.2 1.3.1 4.2-.3 6.6zM271 186.5c-3.5 3.7-10.4 7.5-13.3 7.5-2.6 0-2-3.1 1.4-6.9 2.3-2.4 3.4-3 4.2-2.2 1.6 1.6 4.9 1.3 7.7-.9 3.8-2.9 3.8-1.4 0 2.5zm-126.1 32.6c1.8.6 3 1.6 2.8 2.2-.6 2-2.5 1.8-5.3-.7-3.2-2.8-2.4-3.2 2.5-1.5zm34.1 3.5c0 3.3 2.5 4.9 5.5 3.6 3.2-1.5 3.2-.6.4 7.7-1.2 3.4-2.6 6-3.2 5.8-1.4-.4-3.6-6.8-4.7-13.5-1-5.7-.4-9.4 1.1-7 .5.7.9 2.3.9 3.4zm-25.6 6.6c.9 2.6 0 9.8-1.2 9.8-1.2-.1-5.2-7-5.2-9s2.7-4.2 4.5-3.6c.6.1 1.4 1.4 1.9 2.8zm-26.4-.9 8.5 1.3-5.8 3.8c-6.2 4.1-7.7 7.6-3.3 7.6 1.4 0 2.8-.5 3.1-1 .7-1.1 8.5-5.3 8.5-4.6 0 .2-.7 2-1.5 3.9-.9 2.3-1.5 6.9-1.5 12.4-.1 5.6-.6 9.7-1.5 11.3-1.6 3-2.1 2-2.8-6-.7-7.3-2.2-10.4-6.2-12.3-4-1.9-4.5-1.5-8.1 6.3-2.1 4.5-9.4 13-11.2 13-.5 0-.7-1.3-.4-2.8.5-3.6-2.2-6.2-4.6-4.4-3.7 2.6-7 4.1-10.6 4.7l-3.7.7 3.1-5.1c4.1-6.7 6.9-8.7 13.8-10.1 9-1.9 12.2-3.5 12.2-6.3 0-3.5-3.3-5.9-10.7-7.7-7-1.8-7-2.4.1-4.6 5.2-1.6 11.9-1.6 22.6-.1zm84 18.3c0 .9-.7 4.1-1.6 7.2-1.4 4.9-1.5 6.5-.4 11.9 1.5 7.9.8 12-3.1 16.3-2.1 2.5-2.8 2.9-2.5 1.5.3-1.1-.3-5.2-1.4-9-2.5-8.6-2.5-11.8-.1-17.1 4.2-9.3 9.1-15.1 9.1-10.8zm288.7 8.3c3.5 5.2 3.2 12.3-.6 16.2-3.5 3.5-8.1 3.9-11.1.9-1.6-1.6-2-3.3-2-8.4 0-5.5.4-6.9 2.6-9.6 3.6-4.2 7.9-3.9 11.1.9zm-67.3 22.8c4.2 6.6 4.4 11.1.3 6.5-1.4-1.6-4.7-8.3-4.7-9.7 0-1.7 2.3 0 4.4 3.2zM271 290.2c0 .6-.7.5-1.5-.2s-1.5-1.7-1.5-2.2c0-.6.7-.5 1.5.2s1.5 1.7 1.5 2.2zM561.5 322c.4.6.1 3.4-.6 6.2-1.1 4.6-1 5.3.6 6.4 1.2.9 1.6 2 1.1 3.7-.8 3.3-6.9 12.1-8.1 11.7-1.4-.4-3.4-7.6-2.5-9.1.5-.7.6-1.8.3-2.6-.3-.7 0-2 .7-2.8.8-.9.9-3.2.5-6.7l-.7-5.3 3.4-1.1c4.6-1.5 4.6-1.5 5.3-.4zm-228.2 4.1c3.9 1.1 10 5.8 11.8 9.1 1.6 3 .4 3.2-3.3.5-4.4-3.3-10.2-5-14.2-4.3-1.7.3-5.6 2.2-8.5 4.1-3 1.9-6.6 3.7-8.2 4-2.8.6-6.9-.8-6.9-2.4 0-.7 7.9-6.1 14-9.6 1.4-.9 6.9-2.2 10-2.4.8 0 3.2.4 5.3 1zm170.6 20.7c1.8 1 3.3 2.2 3.4 2.7 0 1.3-12 9.5-13.9 9.5-1.2 0-1.2-.4.2-2.5 2.8-4.2 1.3-5.6-5.3-4.9-3.5.4-7 .1-8.8-.6l-3-1.2 3-1.6c6.8-3.6 19-4.3 24.4-1.4zm153.8 2.5c9.1 5.1 12.2 24.8 5.7 36.7-2.2 4.1-4.1 6-8.1 8.2-10.8 6.1-24.3 7.6-30.4 3.5-4.4-3-7.9-9.2-7.9-14.2 0-4.6 3.6-13.9 7.6-19.6 2.4-3.5 3.1-3.9 5.7-3.3 2.6.5 3.6 0 8.1-4.4 7.5-7.4 14.1-9.8 19.3-6.9zM320 382.4c1.2 3.2 4.2 8.6 6.6 11.9 6.5 9.1 11.4 16.5 12 18.1.4 1-1.1 1.9-4.8 3.1-7.2 2.4-10.1 4-14.5 7.8-8.9 7.8-10.7 13.1-8.2 23.3.9 3.6.9 5.1-.2 7-4 7.5-9.9-4.3-13.4-26.7-1.8-11.9 6.8-42.7 16-56.9l2.9-4.5.8 5.5c.4 3.1 1.7 8.2 2.8 11.4zm107.1 14.7c7.2 5.1 10.7 16.6 7.5 24.3-1.7 4.1-7.9 10.2-13.1 12.8-6.9 3.6-21 2.2-25.2-2.4-4.5-4.9-7.2-13.9-5.9-19.2 1.2-4.7 7.2-10.3 16.4-15.3 1.7-.9 2.8-1 4.1-.1 1.3.8 2.4.7 4.7-.5 4-2.2 8.1-2.1 11.5.4zm101.5 7.6c-.6 9.1-.9 10.2-4.4 15.3l-3.7 5.5-.3-3.9c-.7-7.9 5.1-26.6 8.1-26.6.6 0 .7 3.7.3 9.7zM509.3 425c2.3 10.7 3 18.7 1.8 19.4-1.4.9-4.9-4-6.1-8.6-1.2-4.1.7-20.6 2.1-19.1.4.5 1.4 4.2 2.2 8.3zm-174.7-1.8c-.9 1.2-1.6 4-1.6 6.1 0 7-3.9 12.6-12.6 18.4-2.2 1.4-2.7 1.4-3.5.2-1.8-3-2.1-9.6-.5-12.6 2.1-4.2 10.7-11.7 14.8-13 4.8-1.6 5.1-1.5 3.4.9zm20.2.7c3.1 1.6 7.8 5.1 10.3 7.8 5.8 6.1 11.2 14 10.4 15.3-1.8 2.9-12.1-.3-14.9-4.5-2.4-3.7-5.8-6.6-9.3-8.1-2.8-1.2-3.1-1.8-3.5-6.6-.4-5.1-.2-6.8.8-6.8.2 0 3 1.3 6.2 2.9zm-12.3 11c-.4 1.9-2 5-3.6 7-1.5 2-3.1 5.1-3.5 6.9-.7 3.3-1.2 3.5-6.9 2.3l-3-.6 3.8-2.9c5.2-4 8.7-10.2 8.7-15.6 0-2.7.7-5.1 1.7-6.3 1.7-1.8 1.8-1.8 2.6 2 .4 2.1.5 5.3.2 7.2zm199.8-3.8c.5 1.8 1 2 3.4 1.4 4.7-1.2 11.2-1.7 12.9-1.1 2.4.9-.8 5.5-6.4 9.1-4.1 2.6-4.7 3.5-4.6 6.2.2 3.2-.2 3.5-7 5.7-1.3.5-1.7 1.3-1.4 3 .6 2.8-1.1 3.6-8.1 3.6-3.7 0-4.9-.5-7.7-3.6-3.6-3.8-4-5.7-2.4-11.6 1.2-4.2 2.7-5.5 4.3-3.9 1.7 1.7 2.1 1.5 8.5-4.9 3.4-3.3 6.5-6 7-6s1.2 1 1.5 2.1zm-67.7 3.1c3.2 1.4 13 11.5 12.1 12.4-.3.3-2.9 1.1-5.9 1.8l-5.3 1.2-1-3c-.8-2.5-1.8-3.1-6-4.1-6.3-1.5-13-4.3-12.2-5.2.4-.3 3.1 0 6 .7 7.2 1.7 9.3 1.1 9-2.3-.2-3.1-.4-3.1 3.3-1.5zm98.8 12.4c11 21.8 14.9 26.3 43.5 50.8 9.5 8.1 17 15 16.7 15.3-1.7 1.8-47.3-14.6-72.1-25.9-10.5-4.8-37.2-19.3-39.7-21.5-3.5-3.1-2.1-4.4 2.2-2.2 5.2 2.8 12.3 2.3 20.3-1.4 4.6-2.1 5.7-3 5.7-5 0-1.7 1.6-3.7 6.1-7.1 4.7-3.7 6-5.2 5.7-7-.3-2.1 3-9.6 4.2-9.6.3 0 3.6 6.1 7.4 13.6zM354.5 443c1.1 1.8-.9 1-4-1.6l-3-2.6 3.2 1.6c1.7.9 3.5 2 3.8 2.6zm-4.3 5.7c2.2 2.3 8.8 14.1 8.8 15.7 0 .1-2.1-.3-4.7-.9-2.8-.7-5.7-.9-6.9-.4-1.8.6-2.6.1-4.9-3.4-2.2-3.4-2.6-4.8-2-8.2.8-4.9 3.1-7.8 5.4-6.6.9.5 2.8 2.2 4.3 3.8zM333 459.5c3.1 1.6 7.5 9.6 8.6 15.7 1.6 9.1-3.4 18.1-12.4 22.5-4.8 2.4-7 2.8-13.7 2.8-6.4 0-8.5-.4-10.6-2-4-3-7.1-8.4-7.7-13.2-.5-4.8-1.1-4.1 15.6-19.3 8.3-7.6 14.3-9.6 20.2-6.5zM559 523c3.1 4.3 3.6 10 1.5 15.5-.9 2.5-2.5 5-3.5 5.5-1.6.9-1.8.3-2.4-5.3-.3-3.4-.9-8.3-1.2-11-.4-3.1-.2-5.3.6-6.2 1.8-2.1 2.6-1.9 5 1.5z"/><path d="M645.4 407.6c-8 4.3-10.1 6.2-12.8 11.6-5.7 11.4-1.6 21.7 11.7 29.1 11 6.2 23.6 8.4 31.6 5.6 2.8-1 3.1-1.5 3.1-5.5v-4.5l-2.8 2.1c-5.3 3.9-18.7 2.4-27.9-3.2l-3.3-1.9 2.2-2.9c1.7-2.3 2.2-4.6 2.4-10.4.2-5.6.9-8.7 2.9-12.5 2.9-5.9 3-6.5.9-8.5-2-2.1-2.3-2.1-8 1zm.1 10.1c-.8 2.3-1.4 6.7-1.3 9.8.1 4.6-.2 6-2.1 7.8l-2.2 2.2-2.5-2.8c-3-3.5-3-7-.1-12.7 1.8-3.7 8.3-9.7 9.3-8.7.2.1-.3 2.1-1.1 4.4z"/></svg>